# xmcd
#
# Track frame offsets: 
#        182
#        30540
#        48362
#        77142
#        113135
#        128152
#        143440
#        166677
#        192935
#        237380
#        258902
#
# Disc length: 3638 seconds
#
# Revision: 2
# Processed by: cddbd v1.5.2PL0 Copyright (c) Steve Scherf et al.
# Submitted via: ExactAudioCopyFreeDBPlugin 1.0
#
DISCID=860e340b
DTITLE=Big Joe Turner - Shake, Rattle and Roll
DYEAR=1900
DGENRE=blues
TTITLE0=How Long Blues
TTITLE1=Roll ' em Pet
TTITLE2=Stormy Monday Blues
TTITLE3=Roll Me Baby
TTITLE4=Shake, Rattle and Roll
TTITLE5=When the Sun Goes Down
TTITLE6=TV Mama
TTITLE7=Honey Hush
TTITLE8=Everyday I Have the Blues
TTITLE9=Chicken and the Hawk
TTITLE10=Cherry Red
EXTD=
EXTT0=
EXTT1=
EXTT2=
EXTT3=
EXTT4=
EXTT5=
EXTT6=
EXTT7=
EXTT8=
EXTT9=
EXTT10=
PLAYORDER=
